# xmcd
#
# Track frame offsets: 
#        150
#        53389
#        89770
#        122547
#        152304
#        193994
#        210524
#        251816
#        274110
#        307812
#        327916
#
# Disc length: 4776 seconds
#
# Revision: 1
# Processed by: cddbd v1.5.2PL0 Copyright (c) Steve Scherf et al.
# Submitted via: ExactAudioCopy v0.99pb4
#
DISCID=9012a60b
DTITLE=John Lewis and The MJQ - Four Classic Albums Plus CD1
DYEAR=1956
DGENRE=Jazz
TTITLE0=Tour De Force
TTITLE1=Dizzy Meets Sonny
TTITLE2=Old Folks - What's New? - How Deep Is The Ocean?
TTITLE3=Mean To Me
TTITLE4=Blues For Bird
TTITLE5=The Golden Striker
TTITLE6=One Never Knows
TTITLE7=The Rose Truc
TTITLE8=Cortege
TTITLE9=Venice
TTITLE10=Three Windows
EXTD=
EXTT0=
EXTT1=
EXTT2=
EXTT3=
EXTT4=
EXTT5=
EXTT6=
EXTT7=
EXTT8=
EXTT9=
EXTT10=
PLAYORDER=
